<mxfile host="app.diagrams.net" modified="2024-06-17T13:17:55.658Z" agent="Mozilla/5.0 (Windows NT 10.0; Win64; x64) AppleWebKit/537.36 (KHTML, like Gecko) Chrome/123.0.0.0 Safari/537.36 OPR/109.0.0.0" etag="8XhGeX7RotRTiE92cf-E" version="24.5.4" type="device">
  <diagram name="Page-1" id="k6XXN0VMPzbwcjlIAHaY">
    <mxGraphModel dx="567" dy="523" grid="1" gridSize="10" guides="1" tooltips="1" connect="1" arrows="1" fold="1" page="1" pageScale="1" pageWidth="850" pageHeight="1100" math="0" shadow="0">
      <root>
        <mxCell id="0" />
        <mxCell id="1" parent="0" />
        <mxCell id="Psr1TbWkuxHFkjIAvc4v-4" style="edgeStyle=orthogonalEdgeStyle;rounded=0;orthogonalLoop=1;jettySize=auto;html=1;entryX=1;entryY=0.5;entryDx=0;entryDy=0;" parent="1" source="Psr1TbWkuxHFkjIAvc4v-1" target="Psr1TbWkuxHFkjIAvc4v-3" edge="1">
          <mxGeometry relative="1" as="geometry" />
        </mxCell>
        <mxCell id="YNyjXcU4nW4r_Q14yHqG-1" style="edgeStyle=elbowEdgeStyle;rounded=0;orthogonalLoop=1;jettySize=auto;html=1;elbow=vertical;" edge="1" parent="1">
          <mxGeometry relative="1" as="geometry">
            <mxPoint x="130" y="780" as="targetPoint" />
            <mxPoint x="610" y="690" as="sourcePoint" />
            <Array as="points">
              <mxPoint x="370" y="920" />
            </Array>
          </mxGeometry>
        </mxCell>
        <mxCell id="Psr1TbWkuxHFkjIAvc4v-1" value="Windows OS user" style="shape=umlActor;verticalLabelPosition=bottom;verticalAlign=top;html=1;" parent="1" vertex="1">
          <mxGeometry x="590" y="630" width="30" height="60" as="geometry" />
        </mxCell>
        <mxCell id="Psr1TbWkuxHFkjIAvc4v-38" style="edgeStyle=orthogonalEdgeStyle;rounded=0;orthogonalLoop=1;jettySize=auto;html=1;entryX=0.5;entryY=1;entryDx=0;entryDy=0;" parent="1" source="Psr1TbWkuxHFkjIAvc4v-3" target="Psr1TbWkuxHFkjIAvc4v-5" edge="1">
          <mxGeometry relative="1" as="geometry" />
        </mxCell>
        <mxCell id="Psr1TbWkuxHFkjIAvc4v-40" style="edgeStyle=orthogonalEdgeStyle;rounded=0;orthogonalLoop=1;jettySize=auto;html=1;entryX=0;entryY=0.5;entryDx=0;entryDy=0;" parent="1" source="Psr1TbWkuxHFkjIAvc4v-3" target="Psr1TbWkuxHFkjIAvc4v-39" edge="1">
          <mxGeometry relative="1" as="geometry" />
        </mxCell>
        <mxCell id="Psr1TbWkuxHFkjIAvc4v-42" style="edgeStyle=orthogonalEdgeStyle;rounded=0;orthogonalLoop=1;jettySize=auto;html=1;entryX=1;entryY=0.5;entryDx=0;entryDy=0;" parent="1" source="Psr1TbWkuxHFkjIAvc4v-3" target="Psr1TbWkuxHFkjIAvc4v-41" edge="1">
          <mxGeometry relative="1" as="geometry" />
        </mxCell>
        <mxCell id="Psr1TbWkuxHFkjIAvc4v-3" value="Start button" style="ellipse;whiteSpace=wrap;html=1;" parent="1" vertex="1">
          <mxGeometry x="390" y="580" width="120" height="80" as="geometry" />
        </mxCell>
        <mxCell id="Psr1TbWkuxHFkjIAvc4v-23" style="edgeStyle=orthogonalEdgeStyle;rounded=0;orthogonalLoop=1;jettySize=auto;html=1;" parent="1" source="Psr1TbWkuxHFkjIAvc4v-5" target="Psr1TbWkuxHFkjIAvc4v-15" edge="1">
          <mxGeometry relative="1" as="geometry" />
        </mxCell>
        <mxCell id="Psr1TbWkuxHFkjIAvc4v-24" style="edgeStyle=orthogonalEdgeStyle;rounded=0;orthogonalLoop=1;jettySize=auto;html=1;entryX=1;entryY=0.5;entryDx=0;entryDy=0;" parent="1" source="Psr1TbWkuxHFkjIAvc4v-5" target="Psr1TbWkuxHFkjIAvc4v-6" edge="1">
          <mxGeometry relative="1" as="geometry">
            <Array as="points">
              <mxPoint x="370" y="430" />
              <mxPoint x="370" y="390" />
            </Array>
          </mxGeometry>
        </mxCell>
        <mxCell id="Psr1TbWkuxHFkjIAvc4v-25" style="edgeStyle=orthogonalEdgeStyle;rounded=0;orthogonalLoop=1;jettySize=auto;html=1;entryX=1;entryY=0.5;entryDx=0;entryDy=0;" parent="1" source="Psr1TbWkuxHFkjIAvc4v-5" target="Psr1TbWkuxHFkjIAvc4v-7" edge="1">
          <mxGeometry relative="1" as="geometry">
            <Array as="points">
              <mxPoint x="370" y="430" />
              <mxPoint x="370" y="350" />
            </Array>
          </mxGeometry>
        </mxCell>
        <mxCell id="Psr1TbWkuxHFkjIAvc4v-27" style="edgeStyle=orthogonalEdgeStyle;rounded=0;orthogonalLoop=1;jettySize=auto;html=1;entryX=0.5;entryY=1;entryDx=0;entryDy=0;" parent="1" source="Psr1TbWkuxHFkjIAvc4v-5" target="Psr1TbWkuxHFkjIAvc4v-9" edge="1">
          <mxGeometry relative="1" as="geometry" />
        </mxCell>
        <mxCell id="Psr1TbWkuxHFkjIAvc4v-28" style="edgeStyle=orthogonalEdgeStyle;rounded=0;orthogonalLoop=1;jettySize=auto;html=1;entryX=0.5;entryY=1;entryDx=0;entryDy=0;" parent="1" source="Psr1TbWkuxHFkjIAvc4v-5" target="Psr1TbWkuxHFkjIAvc4v-10" edge="1">
          <mxGeometry relative="1" as="geometry">
            <Array as="points">
              <mxPoint x="450" y="340" />
              <mxPoint x="410" y="340" />
            </Array>
          </mxGeometry>
        </mxCell>
        <mxCell id="Psr1TbWkuxHFkjIAvc4v-30" style="edgeStyle=orthogonalEdgeStyle;rounded=0;orthogonalLoop=1;jettySize=auto;html=1;entryX=0.5;entryY=1;entryDx=0;entryDy=0;" parent="1" source="Psr1TbWkuxHFkjIAvc4v-5" target="Psr1TbWkuxHFkjIAvc4v-12" edge="1">
          <mxGeometry relative="1" as="geometry" />
        </mxCell>
        <mxCell id="Psr1TbWkuxHFkjIAvc4v-31" style="edgeStyle=orthogonalEdgeStyle;rounded=0;orthogonalLoop=1;jettySize=auto;html=1;entryX=0.5;entryY=1;entryDx=0;entryDy=0;" parent="1" source="Psr1TbWkuxHFkjIAvc4v-5" target="Psr1TbWkuxHFkjIAvc4v-13" edge="1">
          <mxGeometry relative="1" as="geometry" />
        </mxCell>
        <mxCell id="Psr1TbWkuxHFkjIAvc4v-32" style="edgeStyle=orthogonalEdgeStyle;rounded=0;orthogonalLoop=1;jettySize=auto;html=1;entryX=0.5;entryY=1;entryDx=0;entryDy=0;" parent="1" source="Psr1TbWkuxHFkjIAvc4v-5" target="Psr1TbWkuxHFkjIAvc4v-14" edge="1">
          <mxGeometry relative="1" as="geometry" />
        </mxCell>
        <mxCell id="Psr1TbWkuxHFkjIAvc4v-33" style="edgeStyle=orthogonalEdgeStyle;rounded=0;orthogonalLoop=1;jettySize=auto;html=1;entryX=0.5;entryY=1;entryDx=0;entryDy=0;" parent="1" source="Psr1TbWkuxHFkjIAvc4v-5" target="Psr1TbWkuxHFkjIAvc4v-16" edge="1">
          <mxGeometry relative="1" as="geometry" />
        </mxCell>
        <mxCell id="Psr1TbWkuxHFkjIAvc4v-34" style="edgeStyle=orthogonalEdgeStyle;rounded=0;orthogonalLoop=1;jettySize=auto;html=1;entryX=0;entryY=0.5;entryDx=0;entryDy=0;" parent="1" source="Psr1TbWkuxHFkjIAvc4v-5" target="Psr1TbWkuxHFkjIAvc4v-18" edge="1">
          <mxGeometry relative="1" as="geometry">
            <Array as="points">
              <mxPoint x="550" y="430" />
              <mxPoint x="550" y="350" />
            </Array>
          </mxGeometry>
        </mxCell>
        <mxCell id="Psr1TbWkuxHFkjIAvc4v-35" style="edgeStyle=orthogonalEdgeStyle;rounded=0;orthogonalLoop=1;jettySize=auto;html=1;entryX=0;entryY=0.5;entryDx=0;entryDy=0;" parent="1" source="Psr1TbWkuxHFkjIAvc4v-5" target="Psr1TbWkuxHFkjIAvc4v-19" edge="1">
          <mxGeometry relative="1" as="geometry" />
        </mxCell>
        <mxCell id="Psr1TbWkuxHFkjIAvc4v-36" style="edgeStyle=orthogonalEdgeStyle;rounded=0;orthogonalLoop=1;jettySize=auto;html=1;entryX=0;entryY=0.5;entryDx=0;entryDy=0;" parent="1" source="Psr1TbWkuxHFkjIAvc4v-5" target="Psr1TbWkuxHFkjIAvc4v-20" edge="1">
          <mxGeometry relative="1" as="geometry" />
        </mxCell>
        <mxCell id="Psr1TbWkuxHFkjIAvc4v-37" style="edgeStyle=orthogonalEdgeStyle;rounded=0;orthogonalLoop=1;jettySize=auto;html=1;entryX=0;entryY=0.5;entryDx=0;entryDy=0;" parent="1" source="Psr1TbWkuxHFkjIAvc4v-5" target="Psr1TbWkuxHFkjIAvc4v-21" edge="1">
          <mxGeometry relative="1" as="geometry" />
        </mxCell>
        <mxCell id="Psr1TbWkuxHFkjIAvc4v-5" value="Choose question buttons" style="ellipse;whiteSpace=wrap;html=1;" parent="1" vertex="1">
          <mxGeometry x="390" y="390" width="120" height="80" as="geometry" />
        </mxCell>
        <mxCell id="Psr1TbWkuxHFkjIAvc4v-6" value="2" style="ellipse;whiteSpace=wrap;html=1;" parent="1" vertex="1">
          <mxGeometry x="320" y="380" width="20" height="20" as="geometry" />
        </mxCell>
        <mxCell id="Psr1TbWkuxHFkjIAvc4v-7" value="3" style="ellipse;whiteSpace=wrap;html=1;" parent="1" vertex="1">
          <mxGeometry x="320" y="340" width="20" height="20" as="geometry" />
        </mxCell>
        <mxCell id="Psr1TbWkuxHFkjIAvc4v-8" value="4" style="ellipse;whiteSpace=wrap;html=1;" parent="1" vertex="1">
          <mxGeometry x="340" y="300" width="20" height="20" as="geometry" />
        </mxCell>
        <mxCell id="Psr1TbWkuxHFkjIAvc4v-9" value="5" style="ellipse;whiteSpace=wrap;html=1;" parent="1" vertex="1">
          <mxGeometry x="370" y="280" width="20" height="20" as="geometry" />
        </mxCell>
        <mxCell id="Psr1TbWkuxHFkjIAvc4v-10" value="6" style="ellipse;whiteSpace=wrap;html=1;" parent="1" vertex="1">
          <mxGeometry x="400" y="270" width="20" height="20" as="geometry" />
        </mxCell>
        <mxCell id="Psr1TbWkuxHFkjIAvc4v-11" value="7" style="ellipse;whiteSpace=wrap;html=1;" parent="1" vertex="1">
          <mxGeometry x="440" y="270" width="20" height="20" as="geometry" />
        </mxCell>
        <mxCell id="Psr1TbWkuxHFkjIAvc4v-12" value="8" style="ellipse;whiteSpace=wrap;html=1;" parent="1" vertex="1">
          <mxGeometry x="470" y="260" width="20" height="20" as="geometry" />
        </mxCell>
        <mxCell id="Psr1TbWkuxHFkjIAvc4v-13" value="9" style="ellipse;whiteSpace=wrap;html=1;" parent="1" vertex="1">
          <mxGeometry x="500" y="270" width="20" height="20" as="geometry" />
        </mxCell>
        <mxCell id="Psr1TbWkuxHFkjIAvc4v-14" value="10" style="ellipse;whiteSpace=wrap;html=1;" parent="1" vertex="1">
          <mxGeometry x="530" y="290" width="20" height="20" as="geometry" />
        </mxCell>
        <mxCell id="Psr1TbWkuxHFkjIAvc4v-15" value="1" style="ellipse;whiteSpace=wrap;html=1;" parent="1" vertex="1">
          <mxGeometry x="330" y="410" width="20" height="20" as="geometry" />
        </mxCell>
        <mxCell id="Psr1TbWkuxHFkjIAvc4v-16" value="11" style="ellipse;whiteSpace=wrap;html=1;" parent="1" vertex="1">
          <mxGeometry x="550" y="310" width="20" height="20" as="geometry" />
        </mxCell>
        <mxCell id="Psr1TbWkuxHFkjIAvc4v-18" value="12" style="ellipse;whiteSpace=wrap;html=1;" parent="1" vertex="1">
          <mxGeometry x="580" y="340" width="20" height="20" as="geometry" />
        </mxCell>
        <mxCell id="Psr1TbWkuxHFkjIAvc4v-19" value="13" style="ellipse;whiteSpace=wrap;html=1;" parent="1" vertex="1">
          <mxGeometry x="585" y="370" width="20" height="20" as="geometry" />
        </mxCell>
        <mxCell id="Psr1TbWkuxHFkjIAvc4v-20" value="14" style="ellipse;whiteSpace=wrap;html=1;" parent="1" vertex="1">
          <mxGeometry x="580" y="400" width="20" height="20" as="geometry" />
        </mxCell>
        <mxCell id="Psr1TbWkuxHFkjIAvc4v-21" value="15" style="ellipse;whiteSpace=wrap;html=1;" parent="1" vertex="1">
          <mxGeometry x="580" y="430" width="20" height="20" as="geometry" />
        </mxCell>
        <mxCell id="Psr1TbWkuxHFkjIAvc4v-26" style="edgeStyle=orthogonalEdgeStyle;rounded=0;orthogonalLoop=1;jettySize=auto;html=1;entryX=1;entryY=0.5;entryDx=0;entryDy=0;" parent="1" source="Psr1TbWkuxHFkjIAvc4v-5" target="Psr1TbWkuxHFkjIAvc4v-8" edge="1">
          <mxGeometry relative="1" as="geometry">
            <mxPoint x="370" y="320" as="targetPoint" />
            <Array as="points">
              <mxPoint x="370" y="430" />
              <mxPoint x="370" y="310" />
            </Array>
          </mxGeometry>
        </mxCell>
        <mxCell id="Psr1TbWkuxHFkjIAvc4v-29" style="edgeStyle=orthogonalEdgeStyle;rounded=0;orthogonalLoop=1;jettySize=auto;html=1;entryX=0.517;entryY=1.167;entryDx=0;entryDy=0;entryPerimeter=0;" parent="1" source="Psr1TbWkuxHFkjIAvc4v-5" target="Psr1TbWkuxHFkjIAvc4v-11" edge="1">
          <mxGeometry relative="1" as="geometry" />
        </mxCell>
        <mxCell id="Psr1TbWkuxHFkjIAvc4v-39" value="Next button" style="ellipse;whiteSpace=wrap;html=1;" parent="1" vertex="1">
          <mxGeometry x="510" y="470" width="120" height="80" as="geometry" />
        </mxCell>
        <mxCell id="Psr1TbWkuxHFkjIAvc4v-47" style="edgeStyle=orthogonalEdgeStyle;rounded=0;orthogonalLoop=1;jettySize=auto;html=1;entryX=0.5;entryY=1;entryDx=0;entryDy=0;" parent="1" source="Psr1TbWkuxHFkjIAvc4v-41" target="Psr1TbWkuxHFkjIAvc4v-43" edge="1">
          <mxGeometry relative="1" as="geometry" />
        </mxCell>
        <mxCell id="Psr1TbWkuxHFkjIAvc4v-48" style="edgeStyle=orthogonalEdgeStyle;rounded=0;orthogonalLoop=1;jettySize=auto;html=1;entryX=0.5;entryY=1;entryDx=0;entryDy=0;" parent="1" source="Psr1TbWkuxHFkjIAvc4v-41" target="Psr1TbWkuxHFkjIAvc4v-45" edge="1">
          <mxGeometry relative="1" as="geometry" />
        </mxCell>
        <mxCell id="Psr1TbWkuxHFkjIAvc4v-49" style="edgeStyle=orthogonalEdgeStyle;rounded=0;orthogonalLoop=1;jettySize=auto;html=1;entryX=0.5;entryY=0;entryDx=0;entryDy=0;" parent="1" source="Psr1TbWkuxHFkjIAvc4v-41" target="Psr1TbWkuxHFkjIAvc4v-44" edge="1">
          <mxGeometry relative="1" as="geometry" />
        </mxCell>
        <mxCell id="Psr1TbWkuxHFkjIAvc4v-41" value="Check 4 checkmarks" style="ellipse;whiteSpace=wrap;html=1;" parent="1" vertex="1">
          <mxGeometry x="230" y="500" width="120" height="80" as="geometry" />
        </mxCell>
        <mxCell id="Psr1TbWkuxHFkjIAvc4v-43" value="1" style="ellipse;whiteSpace=wrap;html=1;" parent="1" vertex="1">
          <mxGeometry x="210" y="440" width="20" height="20" as="geometry" />
        </mxCell>
        <mxCell id="Psr1TbWkuxHFkjIAvc4v-44" value="3" style="ellipse;whiteSpace=wrap;html=1;" parent="1" vertex="1">
          <mxGeometry x="220" y="620" width="20" height="20" as="geometry" />
        </mxCell>
        <mxCell id="Psr1TbWkuxHFkjIAvc4v-45" value="2" style="ellipse;whiteSpace=wrap;html=1;" parent="1" vertex="1">
          <mxGeometry x="260" y="440" width="20" height="20" as="geometry" />
        </mxCell>
        <mxCell id="Psr1TbWkuxHFkjIAvc4v-46" value="4" style="ellipse;whiteSpace=wrap;html=1;" parent="1" vertex="1">
          <mxGeometry x="270" y="620" width="20" height="20" as="geometry" />
        </mxCell>
        <mxCell id="Psr1TbWkuxHFkjIAvc4v-50" style="edgeStyle=orthogonalEdgeStyle;rounded=0;orthogonalLoop=1;jettySize=auto;html=1;entryX=0.517;entryY=0.117;entryDx=0;entryDy=0;entryPerimeter=0;" parent="1" source="Psr1TbWkuxHFkjIAvc4v-41" target="Psr1TbWkuxHFkjIAvc4v-46" edge="1">
          <mxGeometry relative="1" as="geometry" />
        </mxCell>
        <mxCell id="Psr1TbWkuxHFkjIAvc4v-54" style="edgeStyle=orthogonalEdgeStyle;rounded=0;orthogonalLoop=1;jettySize=auto;html=1;entryX=0.5;entryY=0;entryDx=0;entryDy=0;" parent="1" source="Psr1TbWkuxHFkjIAvc4v-51" target="Psr1TbWkuxHFkjIAvc4v-53" edge="1">
          <mxGeometry relative="1" as="geometry" />
        </mxCell>
        <mxCell id="Psr1TbWkuxHFkjIAvc4v-57" style="edgeStyle=orthogonalEdgeStyle;rounded=0;orthogonalLoop=1;jettySize=auto;html=1;entryX=1;entryY=0.5;entryDx=0;entryDy=0;" parent="1" source="Psr1TbWkuxHFkjIAvc4v-51" target="Psr1TbWkuxHFkjIAvc4v-56" edge="1">
          <mxGeometry relative="1" as="geometry" />
        </mxCell>
        <mxCell id="Psr1TbWkuxHFkjIAvc4v-51" value="Submit" style="ellipse;whiteSpace=wrap;html=1;" parent="1" vertex="1">
          <mxGeometry x="230" y="690" width="120" height="80" as="geometry" />
        </mxCell>
        <mxCell id="Psr1TbWkuxHFkjIAvc4v-52" style="edgeStyle=orthogonalEdgeStyle;rounded=0;orthogonalLoop=1;jettySize=auto;html=1;entryX=1.008;entryY=0.542;entryDx=0;entryDy=0;entryPerimeter=0;" parent="1" source="Psr1TbWkuxHFkjIAvc4v-3" target="Psr1TbWkuxHFkjIAvc4v-51" edge="1">
          <mxGeometry relative="1" as="geometry" />
        </mxCell>
        <mxCell id="Psr1TbWkuxHFkjIAvc4v-55" style="edgeStyle=orthogonalEdgeStyle;rounded=0;orthogonalLoop=1;jettySize=auto;html=1;" parent="1" source="Psr1TbWkuxHFkjIAvc4v-53" edge="1">
          <mxGeometry relative="1" as="geometry">
            <mxPoint x="530" y="630" as="targetPoint" />
          </mxGeometry>
        </mxCell>
        <mxCell id="Psr1TbWkuxHFkjIAvc4v-53" value="Retry" style="ellipse;whiteSpace=wrap;html=1;" parent="1" vertex="1">
          <mxGeometry x="230" y="820" width="120" height="80" as="geometry" />
        </mxCell>
        <mxCell id="Psr1TbWkuxHFkjIAvc4v-56" value="Quit" style="ellipse;whiteSpace=wrap;html=1;" parent="1" vertex="1">
          <mxGeometry x="70" y="690" width="120" height="80" as="geometry" />
        </mxCell>
      </root>
    </mxGraphModel>
  </diagram>
</mxfile>
